Coordinates
version=1
nRows=7
nColumns=63
inDegrees=yes

Units are S.I. units (second, meters, Newtons, ...)
If the header above contains a line with 'inDegrees', this indicates whether rotational values are in degrees (yes) or radians (no).

endheader
time	pelvis_tilt	pelvis_list	pelvis_rotation	pelvis_tx	pelvis_ty	pelvis_tz	hip_flexion_r	hip_adduction_r	hip_rotation_r	knee_angle_r	knee_angle_r_beta	ankle_angle_r	subtalar_angle_r	mtp_angle_r	hip_flexion_l	hip_adduction_l	hip_rotation_l	knee_angle_l	knee_angle_l_beta	ankle_angle_l	subtalar_angle_l	mtp_angle_l	L5_S1_Flex_Ext	L5_S1_Lat_Bending	L5_S1_axial_rotation	L4_L5_Flex_Ext	L4_L5_Lat_Bending	L4_L5_axial_rotation	L3_L4_Flex_Ext	L3_L4_Lat_Bending	L3_L4_axial_rotation	L2_L3_Flex_Ext	L2_L3_Lat_Bending	L2_L3_axial_rotation	L1_L2_Flex_Ext	L1_L2_Lat_Bending	L1_L2_axial_rotation	L1_T12_Flex_Ext	L1_T12_Lat_Bending	L1_T12_axial_rotation	Abs_r3	Abs_r2	Abs_r1	Abs_t1	Abs_t2	neck_flexion	neck_bending	neck_rotation	arm_flex_r	arm_add_r	arm_rot_r	elbow_flex_r	pro_sup_r	wrist_flex_r	wrist_dev_r	arm_flex_l	arm_add_l	arm_rot_l	elbow_flex_l	pro_sup_l	wrist_flex_l	wrist_dev_l
      0.00000000	     -0.23214473	     -4.21493995	     94.48277336	      0.21062602	      0.77417976	      0.70545192	     12.94435440	     -1.42129666	     -2.45267415	     16.96579619	      0.29610900	     31.61432144	     -4.04613403	      0.00000000	      9.59829105	      1.60503222	      6.36911514	      5.87104130	      0.10246900	     26.55771333	    -12.31275643	      0.00000000	      0.46394635	      0.09423927	      0.25121671	      0.86159476	      0.12533823	      0.26691775	      0.76221745	      0.22913337	      0.26691775	      0.53024428	      0.22913337	      0.21981462	      0.43082058	      0.19217272	      0.20411357	      0.26509894	      0.14597663	      0.18841253	      3.31392235	      1.06605349	      1.39719196	      0.00000000	      0.00000000	     28.29946590	      4.68966786	     10.52620139	     14.40123467	     -4.31538852	     66.04277011	     32.58486567	     86.83012765	      5.04678917	     -3.21419266	     11.56711893	     -5.48928432	     52.48116209	     39.61668707	     57.64569084	      6.16989911	     -3.43140155
      0.01960784	     -0.36567276	     -3.81357899	     94.33825938	      0.21092348	      0.77462652	      0.70258680	     12.59540272	     -1.49492647	     -2.08816942	     17.35427437	      0.30288923	     31.62753219	     -4.79166781	      0.00000000	      8.66086384	      1.66268806	      6.95662077	      5.46116355	      0.09531528	     27.38043609	    -12.00527390	      0.00000000	      0.44663989	      0.07221871	      0.32684898	      0.82945494	      0.09605089	      0.34727704	      0.73378467	      0.17559258	      0.34727704	      0.51046473	      0.17559258	      0.28599286	      0.41474980	      0.14726840	      0.26556480	      0.25521003	      0.11186678	      0.24513674	      3.19030407	      0.81695251	      1.81783598	      0.00000000	      0.00000000	     28.28855799	      4.36312248	      9.58690896	     12.62457827	     -4.03689635	     61.41574834	     32.59441538	     84.15314573	      7.22462778	     -0.72556277	     11.66393399	     -5.50607029	     53.23503352	     39.14673756	     59.20902033	      5.88487418	     -3.63093241
      0.03921569	     -0.55562278	     -3.45688997	     94.24545057	      0.21133837	      0.77508708	      0.70015334	     12.25513770	     -1.60671408	     -1.65366405	     17.66140006	      0.30824958	     31.84014564	     -5.28729119	      0.00000000	      7.83380047	      1.78427521	      7.44347351	      5.00725452	      0.08739308	     27.92864275	    -11.91271211	      0.00000000	      0.42855990	      0.04284878	      0.34003892	      0.79587860	      0.05698888	      0.36129135	      0.70408106	      0.10418252	      0.36129135	      0.48980111	      0.10418252	      0.29753405	      0.39796073	      0.08737723	      0.27628162	      0.24487913	      0.06637276	      0.25502919	      3.06116053	      0.48471396	      1.89119445	      0.00000000	      0.00000000	     28.27423377	      4.35845443	      9.07990636	     11.86407455	     -3.78674015	     60.21252960	     32.46865409	     79.01528526	      7.85489875	      0.83937206	     11.48734267	     -5.62894321	     53.09045781	     38.98489781	     61.33951329	      5.55108446	     -4.04058848
      0.05882353	     -0.71702653	     -3.11266461	     94.09454914	      0.21193991	      0.77550557	      0.69824196	     11.92644936	     -1.63564479	     -0.99879448	     17.89947863	      0.31240484	     32.11747055	     -5.73737396	      0.00000000	      7.08901107	      1.85180043	      7.44503660	      4.54644999	      0.07935052	     28.39392360	    -11.54837591	      0.00000000	      0.40411757	      0.01843650	      0.33178448	      0.75048673	      0.02452054	      0.35252101	      0.66392475	      0.04482649	      0.35252101	      0.46186597	      0.04482649	      0.29031142	      0.37526357	      0.03759570	      0.26957489	      0.23091278	      0.02855813	      0.24883836	      2.88657136	      0.20855732	      1.84528574	      0.00000000	      0.00000000	     28.25908532	      4.44435449	      8.85080449	     11.59654491	     -3.56392394	     60.00380401	     32.37365598	     74.12169336	      8.10193995	      1.88960319	     11.22514222	     -5.85152797	     52.60603852	     39.09356012	     63.57572931	      5.09294675	     -4.59570735
      0.07843137	     -0.88900629	     -2.82577365	     93.98054840	      0.21268465	      0.77589350	      0.69672951	     11.64554395	     -1.61101351	     -0.01307103	     18.09020011	      0.31573355	     32.35234039	     -6.51019324	      0.00000000	      6.46543637	      1.94832363	      7.61786125	      4.10157078	      0.07158591	     28.52520193	    -11.69406552	      0.00000000	      0.38278201	     -0.00906543	      0.26224204	      0.71086448	     -0.01205703	      0.27863217	      0.62887257	     -0.02204169	      0.27863217	      0.43748156	     -0.02204169	      0.22946178	      0.35545138	     -0.01848623	      0.21307166	      0.21872164	     -0.01404235	      0.19668153	      2.73417364	     -0.10254999	      1.45851154	      0.00000000	      0.00000000	     28.24058604	      4.85421633	      9.03470098	     12.08517096	     -3.31343343	     62.25653149	     32.03549103	     68.33705822	      7.65177218	      2.02011934	     10.63891757	     -6.04944849	     50.83529603	     39.27836312	     66.65418131	      5.22544005	     -5.05144347
      0.09803922	     -1.05647624	     -2.58546522	     93.87638927	      0.21334101	      0.77619365	      0.69551395	     11.40796689	     -1.66928247	      0.47044247	     18.24988107	      0.31852051	     32.77701132	     -6.44844865	      0.00000000	      5.93848494	      2.05119868	      7.50686084	      3.69649322	      0.06451598	     28.62145503	    -11.59277365	      0.00000000	      0.36426200	     -0.03342222	      0.21435072	      0.67647095	     -0.04445156	      0.22774764	      0.59844604	     -0.08126280	      0.22774764	      0.41631504	     -0.08126280	      0.18755688	      0.33825369	     -0.06815460	      0.17415996	      0.20813931	     -0.05177103	      0.16076304	      2.60188702	     -0.37807888	      1.19215438	      0.00000000	      0.00000000	     28.22113492	      5.21970634	      9.28443695	     12.36463897	     -3.01403181	     62.70917042	     31.79687413	     67.61074760	      7.60115169	      1.97496376	     10.34976409	     -6.27051865	     50.36684038	     39.37364128	     67.40285732	      4.72819733	     -5.86617961
      0.11764706	     -1.16160123	     -2.33991977	     93.70961171	      0.21416774	      0.77649473	      0.69463863	     11.16620630	     -1.62303499	      1.14481684	     18.34794497	      0.32023205	     32.99699347	     -6.60096862	      0.00000000	      5.52323485	      2.08283049	      7.19528756	      3.51747269	      0.06139148	     28.66097121	    -11.46250124	      0.00000000	      0.34130487	     -0.05201739	      0.17280665	      0.63383727	     -0.06918313	      0.18360706	      0.56072977	     -0.12647509	      0.18360706	      0.39007733	     -0.12647509	      0.15120582	      0.31693570	     -0.10607387	      0.14040540	      0.19502160	     -0.08057494	      0.12960499	      2.43790654	     -0.58843117	      0.96109873	      0.00000000	      0.00000000	     28.20517328	      5.46316672	      9.40384610	     13.13187979	     -2.73570053	     65.05425177	     31.32171814	     64.46495453	      7.15792309	      1.79847842	     10.03930481	     -6.26296668	     49.09574929	     39.20520381	     70.17285480	      4.46511140	     -6.16909008
